<?xml version="1.0" standalone="yes"?>
<svg xmlns="http://www.w3.org/2000/svg" width="501" height="501">
<path style="fill:#ff5757; stroke:none;" d="M0 0L0 500L500 500L500 0L0 0z"/>
<path style="fill:#010101; stroke:none;" d="M500 0L500 500L0 500L0 501L501 501L501 146L501 44C501 31.5323 504.807 11.4559 500 0z"/>
<path style="fill:#ff8f8f; stroke:none;" d="M173 170L174 171L173 170z"/>
<path style="fill:#ffb1b1; stroke:none;" d="M174 170L175 171L174 170z"/>
<path style="fill:#fffbfb; stroke:none;" d="M175.019 170.786C166.805 173.544 170.975 186.16 178.945 183.238C186.536 180.456 182.725 168.199 175.019 170.786z"/>
<path style="fill:#ffb1b1; stroke:none;" d="M179 170L180 171L179 170z"/>
<path style="fill:#ff8f8f; stroke:none;" d="M180 170L181 171L180 170M171 171L172 172L171 171z"/>
<path style="fill:#ffb1b1; stroke:none;" d="M172 171L173 172L172 171z"/>
<path style="fill:#ff8f8f; stroke:none;" d="M181 171L182 172L181 171z"/>
<path style="fill:#ffb1b1; stroke:none;" d="M171 172L172 173L171 172z"/>
<path style="fill:#ff8f8f; stroke:none;" d="M182 172L183 173L182 172z"/>
<path style="fill:#ffb1b1; stroke:none;" d="M170 173L171 174L170 173M182 173L183 174L182 173z"/>
<path style="fill:#ff8f8f; stroke:none;" d="M183 174L184 175L183 174z"/>
<path style="fill:#ffb1b1; stroke:none;" d="M183 175L184 176L183 175M183.333 178.667L183.667 179.333L183.333 178.667M170 180L173 183L170 180z"/>
<path style="fill:#ff8f8f; stroke:none;" d="M183 180L184 181L183 180M153 181L152 183L153 181z"/>
<path style="fill:#ffb1b1; stroke:none;" d="M154.667 181.333L155.333 181.667L154.667 181.333z"/>
<path style="fill:#fffbfb; stroke:none;" d="M156.001 181.587C142.969 184.997 148.135 204.449 160.985 201.602C174.068 198.703 168.923 178.206 156.001 181.587z"/>
<path style="fill:#ffb1b1; stroke:none;" d="M161.667 181.333L162.333 181.667L161.667 181.333z"/>
<path style="fill:#ff8f8f; stroke:none;" d="M163 181L164 182L163 181M170 181L171 182L170 181M182 181L183 182L182 181z"/>
<path style="fill:#ffb1b1; stroke:none;" d="M164 182L165 183L164 182z"/>
<path style="fill:#ff8f8f; stroke:none;" d="M171 182L172 183L171 182M181 182L182 183L181 182z"/>
<path style="fill:#ffb1b1; stroke:none;" d="M151 183L152 184L151 183M165 183L167 185L165 183z"/>
<path style="fill:#ff8f8f; stroke:none;" d="M166 183L167 184L166 183z"/>
<path style="fill:#ffb1b1; stroke:none;" d="M173 183L174 184L173 183M179 183L180 184L179 183z"/>
<path style="fill:#ff8f8f; stroke:none;" d="M180 183L181 184L180 183z"/>
<path style="fill:#ffb1b1; stroke:none;" d="M150 184L151 185L150 184z"/>
<path style="fill:#ff8f8f; stroke:none;" d="M149 185L150 186L149 185z"/>
<path style="fill:#ffb1b1; stroke:none;" d="M167 185L168 186L167 185z"/>
<path style="fill:#ff8f8f; stroke:none;" d="M168 186L169 187L168 186z"/>
<path style="fill:#ffb1b1; stroke:none;" d="M148 187L149 188L148 187M168 187L169 188L168 187M148 195L149 196L148 195M168 195L169 196L168 195z"/>
<path style="fill:#ff8f8f; stroke:none;" d="M148 196L149 197L148 196M168 196L169 197L168 196z"/>
<path style="fill:#ffb1b1; stroke:none;" d="M149 197L150 198L149 197M167 197L166 199L167 197M150 198L152 200L150 198z"/>
<path style="fill:#ff8f8f; stroke:none;" d="M167 198L168 199L167 198M150 199L151 200L150 199M166 199L167 200L166 199z"/>
<path style="fill:#ffb1b1; stroke:none;" d="M152 200L153 201L152 200M164 200L165 201L164 200z"/>
<path style="fill:#ff8f8f; stroke:none;" d="M165 200L166 201L165 200M153 201L154 202L153 201z"/>
<path style="fill:#ffb1b1; stroke:none;" d="M154 201L155 202L154 201M162 201L163 202L162 201z"/>
<path style="fill:#ff8f8f; stroke:none;" d="M163 201L164 202L163 201M132 203L133 204L132 203z"/>
<path style="fill:#ffb1b1; stroke:none;" d="M133 203L134 204L133 203z"/>
<path style="fill:#fffbfb; stroke:none;" d="M134 203.558C114.754 208.584 123.93 238.329 143 232.347C161.066 226.681 152.352 198.765 134 203.558z"/>
<path style="fill:#ffb1b1; stroke:none;" d="M142.667 203.333L143.333 203.667L142.667 203.333z"/>
<path style="fill:#ff8f8f; stroke:none;" d="M144 203L145 204L144 203z"/>
<path style="fill:#ffb1b1; stroke:none;" d="M130 204L131 205L130 204M145 204L146 205L145 204z"/>
<path style="fill:#ff8f8f; stroke:none;" d="M146 204L147 205L146 204M128 205L129 206L128 205z"/>
<path style="fill:#ffb1b1; stroke:none;" d="M129 205L130 206L129 205z"/>
<path style="fill:#ff8f8f; stroke:none;" d="M147 205L148 206L147 205M127 206L128 207L127 206z"/>
<path style="fill:#ffb1b1; stroke:none;" d="M148 206L149 207L148 206z"/>
<path style="fill:#ff8f8f; stroke:none;" d="M126 207L127 208L126 207z"/>
<path style="fill:#ffb1b1; stroke:none;" d="M149 207L150 208L149 207z"/>
<path style="fill:#ff8f8f; stroke:none;" d="M125 208L126 209L125 208z"/>
<path style="fill:#ffb1b1; stroke:none;" d="M150 208L151 209L150 208M125 209L126 210L125 209z"/>
<path style="fill:#ff8f8f; stroke:none;" d="M151 209L152 210L151 209M124 210L125 211L124 210z"/>
<path style="fill:#ffb1b1; stroke:none;" d="M151 210L152 211L151 210M124 211L125 212L124 211z"/>
<path style="fill:#ff8f8f; stroke:none;" d="M152 211L153 212L152 211M123 212L124 213L123 212z"/>
<path style="fill:#ffb1b1; stroke:none;" d="M152 212L153 213L152 212M123 213L124 214L123 213z"/>
<path style="fill:#ff8f8f; stroke:none;" d="M153 214L154 215L153 214z"/>
<path style="fill:#ffb1b1; stroke:none;" d="M153 215L153 221L154 221L153 215z"/>
<path style="fill:#ff8f8f; stroke:none;" d="M153 221L154 222L153 221z"/>
<path style="fill:#ffb1b1; stroke:none;" d="M123 222L124 223L123 222z"/>
<path style="fill:#ff8f8f; stroke:none;" d="M123 223L124 224L123 223z"/>
<path style="fill:#ffb1b1; stroke:none;" d="M152 223L153 224L152 223z"/>
<path style="fill:#ff8f8f; stroke:none;" d="M152 224L153 225L152 224z"/>
<path style="fill:#ffb1b1; stroke:none;" d="M124 225L125 226L124 225M151 225L152 226L151 225M125 226L126 227L125 226z"/>
<path style="fill:#ff8f8f; stroke:none;" d="M151 226L152 227L151 226M125 227L126 228L125 227z"/>
<path style="fill:#ffb1b1; stroke:none;" d="M150 227L151 228L150 227z"/>
<path style="fill:#ff8f8f; stroke:none;" d="M126 228L127 229L126 228z"/>
<path style="fill:#ffb1b1; stroke:none;" d="M149 228L150 229L149 228z"/>
<path style="fill:#ff8f8f; stroke:none;" d="M127 229L128 230L127 229z"/>
<path style="fill:#ffb1b1; stroke:none;" d="M148 229L149 230L148 229z"/>
<path style="fill:#ff8f8f; stroke:none;" d="M128 230L129 231L128 230z"/>
<path style="fill:#ffb1b1; stroke:none;" d="M129 230L130 231L129 230M147 230L148 231L147 230M130 231L131 232L130 231M145 231L146 232L145 231z"/>
<path style="fill:#ff8f8f; stroke:none;" d="M146 231L147 232L146 231M131 232L132 233L131 232z"/>
<path style="fill:#ffb1b1; stroke:none;" d="M132.667 232.333L133.333 232.667L132.667 232.333M143 232L144 233L143 232z"/>
<path style="fill:#ff8f8f; stroke:none;" d="M144 232L145 233L144 232M134.667 233.333L135.333 233.667L134.667 233.333z"/>
<path style="fill:#ffb1b1; stroke:none;" d="M136 233L136 234L140 234L136 233z"/>
<path style="fill:#ff8f8f; stroke:none;" d="M140.667 233.333L141.333 233.667L140.667 233.333M121 242L122 243L121 242z"/>
<path style="fill:#ffb1b1; stroke:none;" d="M122 242L123 243L122 242z"/>
<path style="fill:#fffbfb; stroke:none;" d="M123 242.638C98.8177 249.626 110.151 286.255 134 279.362C157.193 272.658 146.473 235.855 123 242.638z"/>
<path style="fill:#ffb1b1; stroke:none;" d="M133 242L134 243L133 242z"/>
<path style="fill:#ff8f8f; stroke:none;" d="M134 242L135 243L134 242M119 243L120 244L119 243z"/>
<path style="fill:#ffb1b1; stroke:none;" d="M120 243L121 244L120 243M136 243L137 244L136 243z"/>
<path style="fill:#ff8f8f; stroke:none;" d="M137 243L138 244L137 243M117 244L118 245L117 244z"/>
<path style="fill:#ffb1b1; stroke:none;" d="M118 244L119 245L118 244M138 244L139 245L138 244M116 245L117 246L116 245M139 245L140 246L139 245z"/>
<path style="fill:#ff8f8f; stroke:none;" d="M140 245L141 246L140 245z"/>
<path style="fill:#ffb1b1; stroke:none;" d="M115 246L116 247L115 246z"/>
<path style="fill:#ff8f8f; stroke:none;" d="M141 246L142 247L141 246z"/>
<path style="fill:#ffb1b1; stroke:none;" d="M114 247L115 248L114 247z"/>
<path style="fill:#ff8f8f; stroke:none;" d="M142 247L143 248L142 247z"/>
<path style="fill:#ffb1b1; stroke:none;" d="M113 248L114 249L113 248z"/>
<path style="fill:#ff8f8f; stroke:none;" d="M143 248L144 249L143 248z"/>
<path style="fill:#ffb1b1; stroke:none;" d="M112 249L113 250L112 249z"/>
<path style="fill:#ff8f8f; stroke:none;" d="M144 249L145 250L144 249M164 249L165 250L164 249z"/>
<path style="fill:#ffb1b1; stroke:none;" d="M165 249L165 250L177 250L165 249z"/>
<path style="fill:#ff8f8f; stroke:none;" d="M177 249L178 250L177 249M193 249L194 250L193 249z"/>
<path style="fill:#ffb1b1; stroke:none;" d="M194 249L195 250L194 249z"/>
<path style="fill:#fffbfb; stroke:none;" d="M195.001 249.587C181.326 253.166 186.24 277.043 200.985 272.346C213.143 268.474 208.371 246.089 195.001 249.587z"/>
<path style="fill:#ffb1b1; stroke:none;" d="M200 249L201 250L200 249z"/>
<path style="fill:#ff8f8f; stroke:none;" d="M201 249L202 250L201 249M216 249L217 250L216 249z"/>
<path style="fill:#ffb1b1; stroke:none;" d="M217 249L218 250L217 249z"/>
<path style="fill:#fffbfb; stroke:none;" d="M225 268L211 268L211 270C216.255 272.944 234.345 274.514 228.642 263.133C227.173 260.201 217.929 258.415 218.631 255.189C219.19 252.62 226.748 254.096 229 252C223.727 249.236 208.097 247.99 212.747 258.786C214.701 263.325 221.838 264.109 225 268z"/>
<path style="fill:#ffb1b1; stroke:none;" d="M223 249L224 250L223 249z"/>
<path style="fill:#ff8f8f; stroke:none;" d="M224 249L225 250L224 249M232 249L233 250L232 249z"/>
<path style="fill:#ffb1b1; stroke:none;" d="M232 252L233 252L252 250C247.138 247.96 235.088 247.238 232 252z"/>
<path style="fill:#ff8f8f; stroke:none;" d="M255 249L256 250L255 249z"/>
<path style="fill:#ffb1b1; stroke:none;" d="M256 249L256 250L260 250L256 249z"/>
<path style="fill:#ff8f8f; stroke:none;" d="M260 249L262 251L260 249M270 249L271 250L270 249z"/>
<path style="fill:#ffb1b1; stroke:none;" d="M269 263L271 250L275 250C268.477 247.862 269.967 258.938 269 263M280 249L280 250L297 250L280 249M300 249L300 250L305 250L300 249M314 249L314 250L319 250L314 249M327 250L327 251L332 250L327 250z"/>
<path style="fill:#ff8f8f; stroke:none;" d="M339 249L340 250L339 249z"/>
<path style="fill:#ffb1b1; stroke:none;" d="M340 249L341 250L340 249z"/>
<path style="fill:#fffbfb; stroke:none;" d="M336 267L335 268C341.726 280.495 361.234 266.235 347.981 259.638C345.502 258.405 342.66 257.711 340 257C342.861 251.83 347.274 254.722 352 253C347.713 248.361 333.918 247.397 335.542 256.988C335.976 259.547 354.805 272.069 340.045 268.184L336 267z"/>
<path style="fill:#ffb1b1; stroke:none;" d="M347 249L348 250L347 249z"/>
<path style="fill:#ff8f8f; stroke:none;" d="M348 249L349 250L348 249M111 250L112 251L111 250z"/>
<path style="fill:#ffb1b1; stroke:none;" d="M144 250L145 251L144 250z"/>
<path style="fill:#fffbfb; stroke:none;" d="M164 250C164 256.04 162.596 264.05 164.318 269.851C166.648 277.701 169.99 266.878 170 264C175.442 263.887 189.506 259.024 180.682 251.742C176.757 248.503 168.759 250 164 250z"/>
<path style="fill:#ffb1b1; stroke:none;" d="M179 250L180 251L179 250z"/>
<path style="fill:#ff8f8f; stroke:none;" d="M180 250L181 251L180 250z"/>
<path style="fill:#ffb1b1; stroke:none;" d="M191 250L192 251L191 250z"/>
<path style="fill:#ff8f8f; stroke:none;" d="M203 250L204 251L203 250M214 250L215 251L214 250z"/>
<path style="fill:#ffb1b1; stroke:none;" d="M226 250L227 251L226 250z"/>
<path style="fill:#fffbfb; stroke:none;" d="M233 250L233 253L240 253L240 273L245 273L245 253L252 253L252 250L233 250z"/>
<path style="fill:#ff8f8f; stroke:none;" d="M252 250L252 253L253 253L252 250z"/>
<path style="fill:#fffbfb; stroke:none;" d="M255 250C255 256.463 251.823 271.635 260 273L260 258L261 258C263.395 264.227 268.006 271.912 275 273L275 250L271 250L271 263C265.382 257.865 263.501 250.278 255 250z"/>
<path style="fill:#ff8f8f; stroke:none;" d="M279 250L279 273L280 273L279 250z"/>
<path style="fill:#fffbfb; stroke:none;" d="M280 250L280 273L297 273L297 269L285 269L285 263L293 263L293 259L285 259L285 253L297 253L297 250L280 250z"/>
<path style="fill:#ff8f8f; stroke:none;" d="M299 250L300 251L299 250z"/>
<path style="fill:#fffbfb; stroke:none;" d="M300 250C301.632 257.885 308.571 284.231 313.985 264.005C314.526 261.984 314.819 260.077 315 258L316 258C317.049 261.28 318.455 272.364 322.989 272.364C327.855 272.364 330.878 253.952 332 250C325.457 251.089 324.764 259.33 324 265L323 265L319 250C311.726 250.58 311.25 258.959 310 265C307.413 259.157 307.58 250.604 300 250z"/>
<path style="fill:#ff8f8f; stroke:none;" d="M305 250L306 251L305 250M313 250L314 251L313 250M319 250L320 251L319 250z"/>
<path style="fill:#ffb1b1; stroke:none;" d="M338 250L339 251L338 250z"/>
<path style="fill:#ff8f8f; stroke:none;" d="M350 250L351 251L350 250z"/>
<path style="fill:#ffb1b1; stroke:none;" d="M111 251L112 252L111 251z"/>
<path style="fill:#ff8f8f; stroke:none;" d="M145 251L146 252L145 251M181 251L182 252L181 251z"/>
<path style="fill:#ffb1b1; stroke:none;" d="M190 251L191 252L190 251M204 251L205 252L204 251M213 251L214 252L213 251M305 251L306 252L305 251M313 251L314 252L313 251M319.333 251.667L319.667 252.333L319.333 251.667M331 251L332 252L331 251z"/>
<path style="fill:#ff8f8f; stroke:none;" d="M336 251L337 252L336 251z"/>
<path style="fill:#ffb1b1; stroke:none;" d="M351 251L352 252L351 251z"/>
<path style="fill:#ff8f8f; stroke:none;" d="M110 252L111 253L110 252z"/>
<path style="fill:#ffb1b1; stroke:none;" d="M145 252L146 253L145 252z"/>
<path style="fill:#ff8f8f; stroke:none;" d="M182 252L183 253L182 252z"/>
<path style="fill:#ffb1b1; stroke:none;" d="M189 252L190 253L189 252M205 252L206 253L205 252M212 252L213 253L212 252z"/>
<path style="fill:#ff8f8f; stroke:none;" d="M232 252L233 253L232 252z"/>
<path style="fill:#ffb1b1; stroke:none;" d="M262 252L263 253L262 252M300 252L301 253L300 252z"/>
<path style="fill:#ff8f8f; stroke:none;" d="M331 252L332 253L331 252M352 252L353 253L352 252z"/>
<path style="fill:#ffb1b1; stroke:none;" d="M110 253L111 254L110 253z"/>
<path style="fill:#ff8f8f; stroke:none;" d="M146 253L147 254L146 253M170 253L170 254L175 254L170 253z"/>
<path style="fill:#ffb1b1; stroke:none;" d="M175 253L176 254L175 253z"/>
<path style="fill:#ff8f8f; stroke:none;" d="M188 253L189 254L188 253M195 253L196 254L195 253z"/>
<path style="fill:#ff5757; stroke:none;" d="M196.213 253.89C190.703 255.477 191.987 270.773 198.787 268.338C204.187 266.404 202.762 252.004 196.213 253.89z"/>
<path style="fill:#ff8f8f; stroke:none;" d="M199 253L200 254L199 253M206 253L207 254L206 253M218 253L219 254L218 253M222 253L223 254L222 253z"/>
<path style="fill:#ffb1b1; stroke:none;" d="M223 253L224 254L223 253z"/>
<path style="fill:#ff8f8f; stroke:none;" d="M228 253L229 254L228 253M233 253L233 254L239 254L239 273C241.901 266.086 242.131 253.3 233 253z"/>
<path style="fill:#ffb1b1; stroke:none;" d="M239 253L240 254L239 253M245 253L246 254L245 253z"/>
<path style="fill:#ff8f8f; stroke:none;" d="M246 253L246 254L252 254L246 253M263 253L264 254L263 253z"/>
<path style="fill:#ffb1b1; stroke:none;" d="M285 253L286 254L285 253z"/>
<path style="fill:#ff8f8f; stroke:none;" d="M286 253L286 254L296 254L286 253M300 253L301 254L300 253M306 253L307 254L306 253M312 253L313 254L312 253M326 253L327 254L326 253z"/>
<path style="fill:#ffb1b1; stroke:none;" d="M335 253L336 254L335 253M341 253L342 254L341 253z"/>
<path style="fill:#ff8f8f; stroke:none;" d="M346 253L347 254L346 253z"/>
<path style="fill:#ffb1b1; stroke:none;" d="M351 253L352 254L351 253z"/>
<path style="fill:#ff8f8f; stroke:none;" d="M109 254L110 255L109 254z"/>
<path style="fill:#ffb1b1; stroke:none;" d="M146 254L147 255L146 254z"/>
<path style="fill:#ff5757; stroke:none;" d="M170 254L170 260C178.067 259.554 178.299 254.099 170 254z"/>
<path style="fill:#ff8f8f; stroke:none;" d="M183 254L184 255L183 254M200 254L201 255L200 254M211 254L212 255L211 254M224 254L225 255L224 254M245 254L245 273L246 273L245 254M285 254L285 258L286 258L285 254z"/>
<path style="fill:#ffb1b1; stroke:none;" d="M306 254L307 255L306 254M312.333 254.667L312.667 255.333L312.333 254.667z"/>
<path style="fill:#ff8f8f; stroke:none;" d="M320 254L321 255L320 254z"/>
<path style="fill:#ffb1b1; stroke:none;" d="M326 254L327 255L326 254M340 254L341 255L340 254M348 254L349 255L348 254M350 254L351 255L350 254M109.333 255.667L109.667 256.333L109.333 255.667z"/>
<path style="fill:#ff8f8f; stroke:none;" d="M177 255L178 256L177 255z"/>
<path style="fill:#ffb1b1; stroke:none;" d="M183 255L183 258L184 258L183 255M187 255L188 256L187 255z"/>
<path style="fill:#ff8f8f; stroke:none;" d="M193 255L194 256L193 255z"/>
<path style="fill:#ffb1b1; stroke:none;" d="M201 255L202 256L201 255z"/>
<path style="fill:#ff8f8f; stroke:none;" d="M207 255L208 256L207 255z"/>
<path style="fill:#ffb1b1; stroke:none;" d="M211.333 255.667L211.667 256.333L211.333 255.667M264 255L265 256L264 255M320 255L321 256L320 255M330 255L331 256L330 255z"/>
<path style="fill:#ff8f8f; stroke:none;" d="M340 255L341 256L340 255M147.333 256.667L147.667 257.333L147.333 256.667M201 256L202 257L201 256z"/>
<path style="fill:#ffb1b1; stroke:none;" d="M207 256L208 257L207 256z"/>
<path style="fill:#ff8f8f; stroke:none;" d="M217 256L218 257L217 256M265 256L266 257L265 256z"/>
<path style="fill:#ffb1b1; stroke:none;" d="M301 256L302 257L301 256z"/>
<path style="fill:#ff8f8f; stroke:none;" d="M325 256L326 257L325 256M330 256L331 257L330 256z"/>
<path style="fill:#ffb1b1; stroke:none;" d="M340 256L341 257L340 256z"/>
<path style="fill:#ff8f8f; stroke:none;" d="M177 257L178 258L177 257z"/>
<path style="fill:#ffb1b1; stroke:none;" d="M192 257L192 260L193 260L192 257z"/>
<path style="fill:#ff8f8f; stroke:none;" d="M211 257L212 258L211 257z"/>
<path style="fill:#ffb1b1; stroke:none;" d="M218 257L219 258L218 257z"/>
<path style="fill:#ff8f8f; stroke:none;" d="M301 257L302 258L301 257M307 257L308 258L307 257M311 257L312 258L311 257M321 257L322 258L321 257z"/>
<path style="fill:#ffb1b1; stroke:none;" d="M325 257L326 258L325 257z"/>
<path style="fill:#ff8f8f; stroke:none;" d="M342 257L343 258L342 257z"/>
<path style="fill:#ffb1b1; stroke:none;" d="M147 258L147 265L148 265L147 258M177 258L178 259L177 258z"/>
<path style="fill:#ff8f8f; stroke:none;" d="M183 258L184 259L183 258M186.333 258.667L186.667 259.333L186.333 258.667z"/>
<path style="fill:#ffb1b1; stroke:none;" d="M221 258L222 259L221 258z"/>
<path style="fill:#ff8f8f; stroke:none;" d="M222 258L223 259L222 258z"/>
<path style="fill:#ffb1b1; stroke:none;" d="M260 258L261 259L260 258M285 258L286 259L285 258M307 258L308 259L307 258M311 258L312 259L311 258M315 258L317 260L315 258M321.333 258.667L321.667 259.333L321.333 258.667M329 258L330 259L329 258M335 258L336 259L335 258M344 258L345 259L344 258z"/>
<path style="fill:#ff8f8f; stroke:none;" d="M345 258L346 259L345 258M175 259L176 260L175 259z"/>
<path style="fill:#ffb1b1; stroke:none;" d="M176 259L177 260L176 259M202 259L202 264L203 264L202 259z"/>
<path style="fill:#ff8f8f; stroke:none;" d="M208 259L208 263L209 263L208 259z"/>
<path style="fill:#ffb1b1; stroke:none;" d="M212 259L213 260L212 259M224 259L225 260L224 259z"/>
<path style="fill:#ff8f8f; stroke:none;" d="M225 259L226 260L225 259z"/>
<path style="fill:#ffb1b1; stroke:none;" d="M267 259L268 260L267 259M302 259L303 260L302 259z"/>
<path style="fill:#ff8f8f; stroke:none;" d="M315 259L316 260L315 259M329 259L330 260L329 259M348 259L349 260L348 259z"/>
<path style="fill:#ffb1b1; stroke:none;" d="M182 260L183 261L182 260M186 260L186 263L187 263L186 260z"/>
<path style="fill:#ff8f8f; stroke:none;" d="M192 260L192 263L193 263L192 260M261 260L262 261L261 260M268 260L269 261L268 260M302 260L303 261L302 260M308 260L309 261L308 260M316 260L317 261L316 260M324 260L325 261L324 260M336 260L337 261L336 260z"/>
<path style="fill:#ffb1b1; stroke:none;" d="M350 260L351 261L350 260M181 261L182 262L181 261M214 261L215 262L214 261z"/>
<path style="fill:#ff8f8f; stroke:none;" d="M228 261L229 262L228 261z"/>
<path style="fill:#ffb1b1; stroke:none;" d="M262 261L263 262L262 261M308 261L309 262L308 261z"/>
<path style="fill:#ff8f8f; stroke:none;" d="M310 261L311 262L310 261M322 261L323 262L322 261z"/>
<path style="fill:#ffb1b1; stroke:none;" d="M324 261L325 262L324 261M328.333 261.667L328.667 262.333L328.333 261.667z"/>
<path style="fill:#ff8f8f; stroke:none;" d="M337 261L338 262L337 261z"/>
<path style="fill:#ffb1b1; stroke:none;" d="M351 261L352 262L351 261z"/>
<path style="fill:#ff8f8f; stroke:none;" d="M180 262L181 263L180 262z"/>
<path style="fill:#ffb1b1; stroke:none;" d="M216 262L217 263L216 262M310 262L311 263L310 262M314 262L315 263L314 262M317 262L318 263L317 262M322 262L323 263L322 262z"/>
<path style="fill:#ff8f8f; stroke:none;" d="M339 262L340 263L339 262M352 262L353 263L352 262z"/>
<path style="fill:#ffb1b1; stroke:none;" d="M176.667 263.333L177.333 263.667L176.667 263.333z"/>
<path style="fill:#ff8f8f; stroke:none;" d="M178 263L179 264L178 263M186.333 263.667L186.667 264.333L186.333 263.667z"/>
<path style="fill:#ffb1b1; stroke:none;" d="M192.333 263.667L192.667 264.333L192.333 263.667z"/>
<path style="fill:#ff8f8f; stroke:none;" d="M218 263L219 264L218 263z"/>
<path style="fill:#ffb1b1; stroke:none;" d="M219 263L220 264L219 263M229.333 263.667L229.667 264.333L229.333 263.667M285 263L286 264L285 263M303 263L304 264L303 263z"/>
<path style="fill:#ff8f8f; stroke:none;" d="M314 263L315 264L314 263M317 263L318 264L317 263M323 263L324 264L323 263M342 263L343 264L342 263z"/>
<path style="fill:#ffb1b1; stroke:none;" d="M343 263L344 264L343 263z"/>
<path style="fill:#ff8f8f; stroke:none;" d="M222 264L223 265L222 264M264 264L265 265L264 264M285 264L285 268L286 268L285 264M303 264L304 265L303 264z"/>
<path style="fill:#ffb1b1; stroke:none;" d="M309 264L310 265L309 264M323 264L324 265L323 264z"/>
<path style="fill:#ff8f8f; stroke:none;" d="M345 264L346 265L345 264z"/>
<path style="fill:#ffb1b1; stroke:none;" d="M346 264L347 265L346 264z"/>
<path style="fill:#ff8f8f; stroke:none;" d="M353 264L353 268L354 268L353 264z"/>
<path style="fill:#ffb1b1; stroke:none;" d="M109.333 265.667L109.667 266.333L109.333 265.667z"/>
<path style="fill:#ff8f8f; stroke:none;" d="M147 265L148 266L147 265z"/>
<path style="fill:#ffb1b1; stroke:none;" d="M207 265L208 266L207 265M265 265L266 266L265 265M313 265L314 266L313 265M327 265L328 266L327 265M347 265L348 266L347 265M187 266L188 267L187 266z"/>
<path style="fill:#ff8f8f; stroke:none;" d="M193 266L194 267L193 266M201 266L202 267L201 266M207 266L208 267L207 266z"/>
<path style="fill:#ffb1b1; stroke:none;" d="M213 266L214 267L213 266z"/>
<path style="fill:#ff8f8f; stroke:none;" d="M214 266L215 267L214 266z"/>
<path style="fill:#ffb1b1; stroke:none;" d="M224.333 266.667L224.667 267.333L224.333 266.667M304 266L305 267L304 266z"/>
<path style="fill:#ff8f8f; stroke:none;" d="M313 266L314 267L313 266z"/>
<path style="fill:#ffb1b1; stroke:none;" d="M318 266L319 267L318 266z"/>
<path style="fill:#ff8f8f; stroke:none;" d="M327 266L328 267L327 266M336 266L337 267L336 266z"/>
<path style="fill:#ffb1b1; stroke:none;" d="M337 266L338 267L337 266z"/>
<path style="fill:#ff8f8f; stroke:none;" d="M109 267L110 268L109 267z"/>
<path style="fill:#ffb1b1; stroke:none;" d="M146 267L147 268L146 267z"/>
<path style="fill:#ff8f8f; stroke:none;" d="M187 267L188 268L187 267z"/>
<path style="fill:#ffb1b1; stroke:none;" d="M193 267L194 268L193 267z"/>
<path style="fill:#ff8f8f; stroke:none;" d="M211 267L212 268L211 267M215 267L216 268L215 267z"/>
<path style="fill:#ffb1b1; stroke:none;" d="M229.333 267.667L229.667 268.333L229.333 267.667z"/>
<path style="fill:#ff8f8f; stroke:none;" d="M266 267L267 268L266 267M304 267L305 268L304 267M318 267L319 268L318 267z"/>
<path style="fill:#ffb1b1; stroke:none;" d="M335 267L336 268L335 267M338 267L339 268L338 267M110 268L111 269L110 268z"/>
<path style="fill:#ff8f8f; stroke:none;" d="M146 268L147 269L146 268z"/>
<path style="fill:#ffb1b1; stroke:none;" d="M188 268L189 269L188 268M194 268L195 269L194 268z"/>
<path style="fill:#ff8f8f; stroke:none;" d="M206 268L207 269L206 268M210 268L211 269L210 268z"/>
<path style="fill:#ffb1b1; stroke:none;" d="M216 268L217 269L216 268z"/>
<path style="fill:#ff8f8f; stroke:none;" d="M223 268L224 269L223 268z"/>
<path style="fill:#ffb1b1; stroke:none;" d="M267 268L268 269L267 268M285 268L286 269L285 268M326 268L327 269L326 268M334.333 268.667L334.667 269.333L334.333 268.667z"/>
<path style="fill:#ff8f8f; stroke:none;" d="M340 268L341 269L340 268M110 269L111 270L110 269z"/>
<path style="fill:#ffb1b1; stroke:none;" d="M145 269L146 270L145 269M197 269L198 270L197 269M219 269L219 270L222 270L219 269M305 269L306 270L305 269M312 269L313 270L312 269M319 269L320 270L319 269z"/>
<path style="fill:#ff8f8f; stroke:none;" d="M326 269L327 270L326 269z"/>
<path style="fill:#ffb1b1; stroke:none;" d="M343.667 269.333L344.333 269.667L343.667 269.333M352 269L353 270L352 269M111 270L112 271L111 270z"/>
<path style="fill:#ff8f8f; stroke:none;" d="M145 270L146 271L145 270M189 270L190 271L189 270M211 270L212 271L211 270M228 270L229 271L228 270M297.333 270.667L297.667 271.333L297.333 270.667M305 270L306 271L305 270M312 270L313 271L312 270M319 270L320 271L319 270z"/>
<path style="fill:#ffb1b1; stroke:none;" d="M335 270L336 271L335 270M351 270L352 271L351 270z"/>
<path style="fill:#ff8f8f; stroke:none;" d="M111 271L112 272L111 271z"/>
<path style="fill:#ffb1b1; stroke:none;" d="M144 271L145 272L144 271M203 271L204 272L203 271M213 271L214 272L213 271z"/>
<path style="fill:#ff8f8f; stroke:none;" d="M227 271L228 272L227 271M269 271L270 272L269 271M336 271L337 272L336 271z"/>
<path style="fill:#ffb1b1; stroke:none;" d="M350 271L351 272L350 271M112 272L113 273L112 272z"/>
<path style="fill:#ff8f8f; stroke:none;" d="M144 272L145 273L144 272z"/>
<path style="fill:#ffb1b1; stroke:none;" d="M164 272L165 273L164 272M169 272L170 273L169 272z"/>
<path style="fill:#ff8f8f; stroke:none;" d="M192 272L193 273L192 272z"/>
<path style="fill:#ffb1b1; stroke:none;" d="M193 272L194 273L193 272M201 272L202 273L201 272z"/>
<path style="fill:#ff8f8f; stroke:none;" d="M214 272L215 273L214 272z"/>
<path style="fill:#ffb1b1; stroke:none;" d="M215 272L216 273L215 272M224 272L225 273L224 272z"/>
<path style="fill:#ff8f8f; stroke:none;" d="M225 272L226 273L225 272z"/>
<path style="fill:#ffb1b1; stroke:none;" d="M255 272L256 273L255 272M270 272L271 273L270 272M306 272L307 273L306 272M311 272L312 273L311 272M320 272L321 273L320 272z"/>
<path style="fill:#ff8f8f; stroke:none;" d="M325 272L326 273L325 272M338 272L339 273L338 272z"/>
<path style="fill:#ffb1b1; stroke:none;" d="M339 272L340 273L339 272M348 272L349 273L348 272M113 273L116 276L113 273z"/>
<path style="fill:#ff8f8f; stroke:none;" d="M143 273L144 274L143 273M196 273L196 274L199 274L196 273M219 273L219 274L222 274L219 273M342 273L342 274L346 274L342 273M113 274L114 275L113 274z"/>
<path style="fill:#ffb1b1; stroke:none;" d="M142 274L143 275L142 274z"/>
<path style="fill:#ff8f8f; stroke:none;" d="M114 275L115 276L114 275M141 275L142 276L141 275z"/>
<path style="fill:#ffb1b1; stroke:none;" d="M116 276L117 277L116 276z"/>
<path style="fill:#ff8f8f; stroke:none;" d="M140 276L141 277L140 276M117 277L118 278L117 277z"/>
<path style="fill:#ffb1b1; stroke:none;" d="M138 277L139 278L138 277z"/>
<path style="fill:#ff8f8f; stroke:none;" d="M139 277L140 278L139 277M118 278L119 279L118 278z"/>
<path style="fill:#ffb1b1; stroke:none;" d="M119 278L120 279L119 278M136 278L137 279L136 278z"/>
<path style="fill:#ff8f8f; stroke:none;" d="M137 278L138 279L137 278M121 279L122 280L121 279z"/>
<path style="fill:#ffb1b1; stroke:none;" d="M122 279L123 280L122 279M134 279L135 280L134 279z"/>
<path style="fill:#ff8f8f; stroke:none;" d="M135 279L136 280L135 279M124.667 280.333L125.333 280.667L124.667 280.333z"/>
<path style="fill:#ffb1b1; stroke:none;" d="M126 280L126 281L131 281L126 280z"/>
<path style="fill:#ff8f8f; stroke:none;" d="M131.667 280.333L132.333 280.667L131.667 280.333z"/>
</svg>
